<?xml version="1.0" standalone="no"?>
<!DOCTYPE svg PUBLIC "-//W3C//DTD SVG 20010904//EN"
 "http://www.w3.org/TR/2001/REC-SVG-20010904/DTD/svg10.dtd">
<svg version="1.0" xmlns="http://www.w3.org/2000/svg"
 width="138.000000pt" height="138.000000pt" viewBox="0 0 138.000000 138.000000"
 preserveAspectRatio="xMidYMid meet">

<g transform="translate(0.000000,138.000000) scale(0.100000,-0.100000)"
fill="#000000" stroke="none">
<path d="M650 1326 c-76 -28 -514 -282 -534 -309 -20 -27 -21 -40 -21 -327 0
-287 1 -300 21 -327 13 -18 115 -81 279 -172 204 -113 267 -144 296 -144 29 0
92 31 295 144 163 91 265 154 278 172 20 27 21 41 21 327 0 286 -1 300 -21
327 -21 29 -506 306 -554 316 -14 3 -41 0 -60 -7z m236 -217 c110 -60 202
-113 206 -117 4 -4 -84 -58 -197 -121 l-204 -113 -205 114 c-113 62 -202 116
-198 120 4 4 95 56 202 116 107 61 196 111 196 111 1 1 91 -49 200 -110z
m-453 -343 l197 -109 0 -229 c0 -125 -3 -228 -7 -227 -5 0 -98 51 -208 112
l-200 113 -3 228 c-2 185 0 227 11 224 7 -2 102 -52 210 -112z m722 -332 c0
-27 -11 -35 -139 -107 -163 -91 -175 -95 -200 -68 -32 36 -15 62 76 111 229
125 220 121 242 106 13 -8 21 -24 21 -42z"/>
</g>
</svg>
